<svg width="14" height="14" viewBox="0 0 14 14" fill="none" xmlns="http://www.w3.org/2000/svg">
<path d="M7.00283 0C4.0804 0 3.2257 0.00301554 3.05956 0.0168008C2.45983 0.0666649 2.08664 0.161116 1.68007 0.363588C1.36674 0.519211 1.11963 0.699605 0.875756 0.952479C0.431608 1.41364 0.162428 1.98099 0.0649851 2.6554C0.0176094 2.9828 0.00382733 3.04957 0.00102786 4.7219C-4.88617e-05 5.27934 0.00102786 6.01298 0.00102786 6.99702C0.00102786 9.91778 0.00425802 10.7718 0.0182554 10.9377C0.0667078 11.5214 0.158229 11.8886 0.352039 12.2904C0.722431 13.0593 1.42984 13.6366 2.26322 13.852C2.55178 13.9263 2.87049 13.9672 3.27964 13.9866C3.45299 13.9941 5.21989 13.9995 6.98787 13.9995C8.75584 13.9995 10.5238 13.9974 10.6929 13.9888C11.1666 13.9665 11.4417 13.9295 11.7459 13.8509C12.5847 13.6344 13.2791 13.0658 13.6571 12.2861C13.8471 11.894 13.9435 11.5128 13.9871 10.9595C13.9966 10.8389 14.0005 8.91576 14.0005 6.99518C14.0005 5.07429 13.9962 3.15468 13.9868 3.03406C13.9426 2.47188 13.8463 2.09386 13.6501 1.6943C13.4891 1.36722 13.3104 1.12296 13.0509 0.873213C12.5878 0.430791 12.0214 0.161547 11.3465 0.0641879C11.0195 0.0169085 10.9544 0.00290784 9.28117 0H7.00283Z" fill="url(#paint0_radial_1_32)"/>
<path d="M7.00283 0C4.0804 0 3.2257 0.00301554 3.05956 0.0168008C2.45983 0.0666649 2.08664 0.161116 1.68007 0.363588C1.36674 0.519211 1.11963 0.699605 0.875756 0.952479C0.431608 1.41364 0.162428 1.98099 0.0649851 2.6554C0.0176094 2.9828 0.00382733 3.04957 0.00102786 4.7219C-4.88617e-05 5.27934 0.00102786 6.01298 0.00102786 6.99702C0.00102786 9.91778 0.00425802 10.7718 0.0182554 10.9377C0.0667078 11.5214 0.158229 11.8886 0.352039 12.2904C0.722431 13.0593 1.42984 13.6366 2.26322 13.852C2.55178 13.9263 2.87049 13.9672 3.27964 13.9866C3.45299 13.9941 5.21989 13.9995 6.98787 13.9995C8.75584 13.9995 10.5238 13.9974 10.6929 13.9888C11.1666 13.9665 11.4417 13.9295 11.7459 13.8509C12.5847 13.6344 13.2791 13.0658 13.6571 12.2861C13.8471 11.894 13.9435 11.5128 13.9871 10.9595C13.9966 10.8389 14.0005 8.91576 14.0005 6.99518C14.0005 5.07429 13.9962 3.15468 13.9868 3.03406C13.9426 2.47188 13.8463 2.09386 13.6501 1.6943C13.4891 1.36722 13.3104 1.12296 13.0509 0.873213C12.5878 0.430791 12.0214 0.161547 11.3465 0.0641879C11.0195 0.0169085 10.9544 0.00290784 9.28117 0H7.00283Z" fill="url(#paint1_radial_1_32)"/>
<path d="M6.9996 1.83086C5.59599 1.83086 5.41984 1.837 4.86856 1.86209C4.31835 1.8873 3.94279 1.97442 3.61418 2.10226C3.27426 2.2343 2.98591 2.41092 2.69864 2.69837C2.41116 2.9857 2.23458 3.27412 2.10214 3.61401C1.97401 3.94281 1.8868 4.31857 1.86203 4.86869C1.83737 5.4201 1.83091 5.59641 1.83091 7.00035C1.83091 8.4043 1.83716 8.57996 1.86214 9.13137C1.88744 9.6817 1.97455 10.0574 2.10225 10.386C2.23436 10.726 2.41094 11.0145 2.69832 11.3018C2.98548 11.5894 3.27383 11.7664 3.61353 11.8984C3.94236 12.0263 4.31803 12.1134 4.86813 12.1386C5.41941 12.1637 5.59545 12.1698 6.99896 12.1698C8.40268 12.1698 8.57829 12.1637 9.12957 12.1386C9.67978 12.1134 10.0558 12.0263 10.3846 11.8984C10.7244 11.7664 11.0123 11.5894 11.2995 11.3018C11.587 11.0145 11.7636 10.726 11.896 10.3862C12.023 10.0574 12.1103 9.6816 12.1361 9.13148C12.1609 8.58006 12.1673 8.4043 12.1673 7.00035C12.1673 5.59641 12.1609 5.42021 12.1361 4.8688C12.1103 4.31846 12.023 3.94281 11.896 3.61412C11.7636 3.27412 11.587 2.9857 11.2995 2.69837C11.012 2.41081 10.7245 2.23419 10.3843 2.10226C10.0548 1.97442 9.67902 1.8873 9.12882 1.86209C8.57754 1.837 8.40203 1.83086 6.99799 1.83086H6.9996ZM6.53597 2.76245C6.67357 2.76223 6.82711 2.76245 6.9996 2.76245C8.37953 2.76245 8.54308 2.7674 9.08801 2.79217C9.59192 2.81522 9.8654 2.89944 10.0476 2.9702C10.2888 3.06389 10.4607 3.1759 10.6415 3.35683C10.8224 3.53776 10.9344 3.71008 11.0283 3.95132C11.099 4.13333 11.1833 4.40688 11.2062 4.91091C11.231 5.45586 11.2364 5.61956 11.2364 6.99917C11.2364 8.37878 11.231 8.54248 11.2062 9.08743C11.1832 9.59145 11.099 9.86501 11.0283 10.047C10.9346 10.2883 10.8224 10.46 10.6415 10.6409C10.4606 10.8218 10.2889 10.9338 10.0476 11.0275C9.86562 11.0986 9.59192 11.1826 9.08801 11.2056C8.54319 11.2304 8.37953 11.2358 6.9996 11.2358C5.61957 11.2358 5.45602 11.2304 4.9112 11.2056C4.40729 11.1824 4.1338 11.0981 3.95152 11.0274C3.71033 10.9337 3.53805 10.8217 3.35717 10.6408C3.17628 10.4598 3.0643 10.2879 2.97041 10.0466C2.89967 9.86458 2.81536 9.59102 2.79243 9.087C2.76766 8.54205 2.76271 8.37835 2.76271 6.99788C2.76271 5.61741 2.76766 5.45457 2.79243 4.90962C2.81547 4.40559 2.89967 4.13204 2.97041 3.94981C3.06408 3.70857 3.17628 3.53626 3.35717 3.35532C3.53805 3.17439 3.71033 3.06239 3.95152 2.96847C4.1337 2.89739 4.40729 2.81339 4.9112 2.79023C5.38797 2.76869 5.57273 2.76223 6.53597 2.76115V2.76245ZM9.75838 3.6208C9.41598 3.6208 9.13819 3.89834 9.13819 4.24092C9.13819 4.5834 9.41598 4.86126 9.75838 4.86126C10.1008 4.86126 10.3786 4.5834 10.3786 4.24092C10.3786 3.89844 10.1008 3.62058 9.75838 3.62058V3.6208ZM6.9996 4.3456C5.53386 4.3456 4.34549 5.53426 4.34549 7.00035C4.34549 8.46644 5.53386 9.65456 6.9996 9.65456C8.46534 9.65456 9.65329 8.46644 9.65329 7.00035C9.65329 5.53426 8.46534 4.3456 6.9996 4.3456ZM6.9996 5.27719C7.95099 5.27719 8.72236 6.04863 8.72236 7.00035C8.72236 7.95197 7.95099 8.72352 6.9996 8.72352C6.04811 8.72352 5.27685 7.95197 5.27685 7.00035C5.27685 6.04863 6.04811 5.27719 6.9996 5.27719Z" fill="white"/>
<defs>
<radialGradient id="paint0_radial_1_32" cx="0" cy="0" r="1" gradientUnits="userSpaceOnUse" gradientTransform="translate(3.71932 15.0778) rotate(-90) scale(13.8746 12.9049)">
<stop stop-color="#FFDD55"/>
<stop offset="0.1" stop-color="#FFDD55"/>
<stop offset="0.5" stop-color="#FF543E"/>
<stop offset="1" stop-color="#C837AB"/>
</radialGradient>
<radialGradient id="paint1_radial_1_32" cx="0" cy="0" r="1" gradientUnits="userSpaceOnUse" gradientTransform="translate(-2.34452 1.0085) rotate(78.6803) scale(6.20199 25.5657)">
<stop stop-color="#3771C8"/>
<stop offset="0.128" stop-color="#3771C8"/>
<stop offset="1" stop-color="#6600FF" stop-opacity="0"/>
</radialGradient>
</defs>
</svg>
