<svg width="13" height="14" viewBox="0 0 13 14" fill="none" xmlns="http://www.w3.org/2000/svg">
<path d="M9.17295 5.05367C10.076 5.69953 11.1823 6.07953 12.3772 6.07953V3.77917C12.151 3.77922 11.9255 3.75563 11.7042 3.70873V5.51945C10.5095 5.51945 9.40336 5.13944 8.49999 4.49364V9.188C8.49999 11.5363 6.59719 13.4399 4.2501 13.4399C3.37434 13.4399 2.56035 13.1751 1.88417 12.7208C2.65592 13.5102 3.73218 14 4.92286 14C7.27008 14 9.17302 12.0964 9.17302 9.74792L9.17295 5.05367ZM10.0031 2.73289C9.54152 2.22844 9.23846 1.57654 9.17295 0.855831V0.55995H8.53527C8.69579 1.47597 9.24325 2.25857 10.0031 2.73289ZM3.36872 10.9187C3.11086 10.5805 2.97152 10.1667 2.97214 9.74125C2.97214 8.66714 3.84248 7.79629 4.91624 7.79629C5.11635 7.79629 5.31526 7.82693 5.50597 7.88746V5.53569C5.2831 5.50513 5.05818 5.49215 4.83334 5.49691V7.32741C4.64249 7.26688 4.44349 7.23611 4.24332 7.23631C3.16957 7.23631 2.29928 8.10709 2.29928 9.18127C2.29928 9.94082 2.73431 10.5984 3.36872 10.9187Z" fill="#FF004F"/>
<path d="M8.49999 4.49364C9.40336 5.13944 10.5095 5.51945 11.7042 5.51945V3.70873C11.0373 3.56661 10.447 3.21788 10.0031 2.73289C9.24325 2.25857 8.69579 1.47597 8.53527 0.55995H6.86031V9.74785C6.85647 10.819 5.98764 11.6863 4.91618 11.6863C4.28479 11.6863 3.72397 11.3852 3.36872 10.9187C2.73431 10.5984 2.29928 9.94082 2.29928 9.18127C2.29928 8.10709 3.16957 7.23631 4.24332 7.23631C4.44906 7.23631 4.64734 7.26836 4.83334 7.32741V5.49691C2.52747 5.54457 0.67294 7.42961 0.67294 9.74792C0.67294 10.9052 1.13466 11.9542 1.88417 12.7208C2.56035 13.1751 3.37434 13.4399 4.2501 13.4399C6.59719 13.4399 8.49999 11.5363 8.49999 9.188V4.49364Z" fill="black"/>
<path d="M11.7042 3.70873V3.21912C11.1028 3.22004 10.5133 3.05155 10.0031 2.73289C10.4547 3.22763 11.0495 3.56877 11.7042 3.70873ZM8.53527 0.55995C8.51992 0.472408 8.50814 0.384334 8.49999 0.295876V0H6.18724V9.188C6.18355 10.259 5.31475 11.1263 4.2432 11.1263C3.92861 11.1263 3.63176 11.0515 3.36872 10.9187C3.72397 11.3852 4.28479 11.6863 4.91618 11.6863C5.98764 11.6863 6.85647 10.819 6.86031 9.74785V0.55995H8.53527ZM4.83334 5.49691L4.83331 4.97578C4.64006 4.94935 4.44523 4.93609 4.25016 4.93619C1.90282 4.93614 0 6.83981 0 9.188C0 10.6602 0.747779 11.9576 1.88417 12.7208C1.13466 11.9542 0.67294 10.9052 0.67294 9.74792C0.67294 7.42961 2.52747 5.54457 4.83334 5.49691Z" fill="#00F2EA"/>
</svg>
