<svg width="20" height="14" viewBox="0 0 20 14" fill="none" xmlns="http://www.w3.org/2000/svg">
<path d="M0.519004 11.9529C-0.173001 8.68718 -0.173001 5.31269 0.519004 2.04697C0.609929 1.71533 0.785611 1.41306 1.02877 1.1699C1.27193 0.926743 1.57419 0.751062 1.90583 0.660137C7.21883 -0.220046 12.6404 -0.220046 17.9534 0.660137C18.2851 0.751062 18.5874 0.926743 18.8305 1.1699C19.0737 1.41306 19.2494 1.71533 19.3403 2.04697C20.0323 5.31269 20.0323 8.68718 19.3403 11.9529C19.2494 12.2845 19.0737 12.5868 18.8305 12.83C18.5874 13.0731 18.2851 13.2488 17.9534 13.3397C12.6405 14.2201 7.21882 14.2201 1.90583 13.3397C1.57419 13.2488 1.27193 13.0731 1.02877 12.83C0.785611 12.5868 0.609929 12.2845 0.519004 11.9529Z" fill="#FF0000"/>
<path d="M7.94845 9.97171L12.9014 6.99993L7.94845 4.02815V9.97171Z" fill="white"/>
</svg>
